<svg width="30" height="30" viewBox="0 0 30 30" fill="none" xmlns="http://www.w3.org/2000/svg">
<g id="Frame">
<path id="Vector" d="M27.0235 9.92035C26.3661 8.36635 25.4254 6.9709 24.2268 5.7724C23.0286 4.5742 21.6328 3.63295 20.079 2.97565C18.4701 2.2951 16.7608 1.94995 14.9992 1.94995C13.2379 1.94995 11.529 2.2951 9.91977 2.97565C8.36607 3.63295 6.97017 4.57405 5.77182 5.77225C4.57332 6.97075 3.63237 8.36635 2.97507 9.9202C2.29467 11.5293 1.94922 13.2385 1.94922 15C1.94922 16.7614 2.29467 18.4705 2.97507 20.0794C3.63237 21.6334 4.57332 23.029 5.77197 24.2274C6.97017 25.4257 8.36577 26.3668 9.91977 27.0241C11.5287 27.7046 13.2378 28.0499 14.9992 28.0499C16.761 28.0499 18.4698 27.7046 20.0791 27.0241C21.633 26.3668 23.0287 25.4258 24.2269 24.2274C25.4254 23.029 26.3662 21.6334 27.0237 20.0794C27.7041 18.4705 28.0492 16.7614 28.0492 15C28.0492 13.2385 27.7041 11.5293 27.0235 9.92035ZM25.3504 19.3724C24.7848 20.71 23.9743 21.9115 22.9428 22.9433C21.9194 23.9693 20.7068 24.7869 19.372 25.351C17.9872 25.9366 16.5159 26.2336 14.9991 26.2336C13.4824 26.2336 12.0114 25.9368 10.6266 25.351C9.28887 24.7852 8.08767 23.9752 7.05597 22.9433C6.02998 21.92 5.21231 20.7073 4.64832 19.3724C4.06257 17.9876 3.76557 16.5166 3.76557 15C3.76557 13.4833 4.06242 12.0121 4.64832 10.6275C5.21222 9.29256 6.0299 8.07983 7.05597 7.05655C8.0792 6.03057 9.29182 5.2129 10.6266 4.6489C12.0114 4.0633 13.4824 3.76615 14.9991 3.76615C16.5159 3.76615 17.9868 4.06315 19.3717 4.6489C20.7094 5.2147 21.9106 6.0247 22.9425 7.05655C23.9685 8.07983 24.7862 9.29256 25.3501 10.6275C25.936 12.0121 26.2329 13.4833 26.2329 15C26.2329 16.5166 25.936 17.9876 25.3504 19.3724Z" fill="white" fill-opacity="0.6"/>
<path id="Vector_2" d="M16.1058 17.006C16.0308 17.8248 15.5101 18.2075 14.9962 18.2075C14.5081 18.1155 14.1291 17.9073 13.9626 17.0792L13.291 9.33721C13.291 8.55901 14.2371 7.87036 15.0397 7.87036C15.8425 7.87036 16.7071 8.59051 16.7071 9.36736L16.1058 17.006ZM14.9992 19.2203C14.1964 19.2203 13.545 19.871 13.545 20.6745C13.545 21.4782 14.1957 22.1298 14.9992 22.1298C15.8026 22.1298 16.4536 21.4782 16.4536 20.6745C16.4535 19.872 15.8025 19.2203 14.9992 19.2203Z" fill="white" fill-opacity="0.6"/>
</g>
</svg>
