<svg width="30" height="30" viewBox="0 0 30 30" fill="none" xmlns="http://www.w3.org/2000/svg">
<path d="M23.2852 23.2852C22.875 23.6953 22.2041 23.6953 21.7939 23.2852L6.71484 8.20606C6.30469 7.7959 6.30469 7.125 6.71484 6.71484C7.125 6.30469 7.7959 6.30469 8.20605 6.71484L23.2881 21.7969C23.6953 22.2041 23.6953 22.875 23.2852 23.2852Z" fill="white"/>
<path d="M23.2852 6.71521C23.6953 7.12537 23.6953 7.79627 23.2852 8.20642L8.20606 23.2855C7.7959 23.6957 7.125 23.6957 6.71484 23.2855C6.30469 22.8754 6.30469 22.2045 6.71484 21.7943L21.7969 6.71228C22.2041 6.30505 22.875 6.30505 23.2852 6.71521Z" fill="white"/>
</svg>
